<svg xmlns="http://www.w3.org/2000/svg" height="512" viewBox="0 0 64 64" width="512"><path d="m61 25h-28l-16 16h28z" fill="#aabece"></path><path d="m57 29 4-4h-7l-4 4z" fill="#aabece"></path><path d="m46 33h7l4-4h-7z" fill="#cfdfe8"></path><path d="m49 37 4-4h-7l-4 4z" fill="#aabece"></path><path d="m45 41 4-4h-7l-4 4z" fill="#cfdfe8"></path><path d="m50 29 4-4h-7l-4 4z" fill="#cfdfe8"></path><path d="m39 33h7l4-4h-7z" fill="#aabece"></path><path d="m42 37 4-4h-7l-4 4z" fill="#cfdfe8"></path><path d="m38 41 4-4h-7l-4 4z" fill="#aabece"></path><path d="m43 29 4-4h-7l-4 4z" fill="#aabece"></path><path d="m32 33h7l4-4h-7z" fill="#cfdfe8"></path><path d="m35 37 4-4h-7l-4 4z" fill="#aabece"></path><path d="m31 41 4-4h-7l-4 4z" fill="#cfdfe8"></path><path d="m36 29 4-4h-7l-4 4z" fill="#cfdfe8"></path><path d="m25 33h7l4-4h-7z" fill="#aabece"></path><path d="m28 37 4-4h-7l-4 4z" fill="#cfdfe8"></path><path d="m24 41 4-4h-7l-4 4z" fill="#aabece"></path><path d="m61 25-16 16h-28v4h30l14-14z" fill="#5a6470"></path><path d="m34 45h6v12h-6z" fill="#32b1cc"></path><path d="m24 57h26v4h-26z" fill="#2d75bb"></path><circle cx="17" cy="17" fill="#f9bb4b" r="8"></circle><path d="m14 17h-2a5.006 5.006 0 0 1 5-5v2a3 3 0 0 0 -3 3z" fill="#e6f1fd"></path><g fill="#fcf05a"><path d="m16 2h2v4h-2z"></path><path d="m16 28h2v4h-2z"></path><path d="m2 16h4v2h-4z"></path><path d="m28 16h4v2h-4z"></path><path d="m6.5 5.379h2v4.243h-2z" transform="matrix(.707 -.707 .707 .707 -3.107 7.5)"></path><path d="m5.379 25.5h4.243v2h-4.243z" transform="matrix(.707 -.707 .707 .707 -16.542 13.065)"></path><path d="m24.379 6.5h4.243v2h-4.243z" transform="matrix(.707 -.707 .707 .707 2.458 20.935)"></path><path d="m25 24.586h2v2.828h-2z" transform="matrix(.707 -.707 .707 .707 -10.77 26)"></path></g><path d="m62 60h-8a1 1 0 0 1 -1-1v-6h-13v-2h14a1 1 0 0 1 1 1v6h7z" fill="#87cee9"></path></svg>