<svg width="67" height="67" viewBox="0 0 67 67" fill="none" xmlns="http://www.w3.org/2000/svg">
<path fill-rule="evenodd" clip-rule="evenodd" d="M33.5764 0.661987C15.4042 0.661987 0.661987 15.4042 0.661987 33.5764C0.661987 51.7486 15.4042 66.4908 33.5764 66.4908C51.7486 66.4908 66.4908 51.7486 66.4908 33.5764C66.4908 15.4042 51.7486 0.661987 33.5764 0.661987ZM33.5764 59.8948C19.065 59.8948 7.25806 48.0878 7.25806 33.5764C7.25806 19.065 19.065 7.25807 33.5764 7.25807C48.0878 7.25807 59.8948 19.065 59.8948 33.5764C59.8948 48.0878 48.0878 59.8948 33.5764 59.8948ZM21.2088 38.5235L36.05 10.4901V28.6294H45.9441L31.5646 56.6627V38.5235H21.2088Z" fill="#F2F2F2"/>
</svg>
