<svg width="30" height="30" viewBox="0 0 30 30" fill="none" xmlns="http://www.w3.org/2000/svg">
<path fill-rule="evenodd" clip-rule="evenodd" d="M29.25 0.75V11.8333H18.1667L22.8375 7.1625C20.8267 5.1675 18.0558 3.91667 15 3.91667C8.88833 3.91667 3.91667 8.88833 3.91667 15C3.91667 21.1117 8.88833 26.0833 15 26.0833C21.1117 26.0833 26.0833 21.1117 26.0833 15H29.25C29.25 22.8692 22.8692 29.25 15 29.25C7.13083 29.25 0.75 22.8692 0.75 15C0.75 7.13083 7.13083 0.75 15 0.75C18.9425 0.75 22.505 2.34917 25.07 4.93L29.25 0.75ZM13.4167 16.5833V8.66667H15.7917V15.2375L21.365 18.5467L20.1458 20.5733L13.4167 16.5833Z" fill="#FF8040"/>
</svg>
