<svg width="27" height="27" viewBox="0 0 27 27" fill="none" xmlns="http://www.w3.org/2000/svg">
<path d="M12.15 6.75H14.85V9.45H12.15V6.75Z" fill="#2F80ED"/>
<path d="M12.15 12.15H14.85V20.25H12.15V12.15Z" fill="#2F80ED"/>
<path fill-rule="evenodd" clip-rule="evenodd" d="M0 13.5C0 6.048 6.04797 0 13.5 0C20.952 0 27 6.048 27 13.5C27 20.952 20.952 27 13.5 27C6.04797 27 0 20.952 0 13.5ZM2.7 13.5C2.7 19.4535 7.54645 24.3 13.5 24.3C19.4535 24.3 24.3 19.4535 24.3 13.5C24.3 7.54649 19.4535 2.7 13.5 2.7C7.54645 2.7 2.7 7.54649 2.7 13.5Z" fill="#2F80ED"/>
</svg>
