<svg width="25" height="35" viewBox="0 0 25 35" fill="none" xmlns="http://www.w3.org/2000/svg">
<path fill-rule="evenodd" clip-rule="evenodd" d="M12.5 0.416626C5.88871 0.416626 0.541626 5.76371 0.541626 12.375C0.541626 21.3437 12.5 34.5833 12.5 34.5833C12.5 34.5833 24.4583 21.3437 24.4583 12.375C24.4583 5.76371 19.1112 0.416626 12.5 0.416626ZM3.95831 12.375C3.95831 7.65995 7.78497 3.83329 12.5 3.83329C17.215 3.83329 21.0416 7.65995 21.0416 12.375C21.0416 17.295 16.1216 24.6579 12.5 29.2533C8.94664 24.692 3.95831 17.2437 3.95831 12.375ZM8.22913 12.375C8.22913 10.0162 10.1412 8.10413 12.5 8.10413C14.0258 8.10413 15.4357 8.91814 16.1986 10.2395C16.9615 11.5609 16.9615 13.189 16.1986 14.5104C15.4357 15.8318 14.0258 16.6458 12.5 16.6458C10.1412 16.6458 8.22913 14.7337 8.22913 12.375Z" fill="#EB5757"/>
</svg>
