<svg width="12" height="16" viewBox="0 0 12 16" fill="none" xmlns="http://www.w3.org/2000/svg">
<path fill-rule="evenodd" clip-rule="evenodd" d="M8.08342 0.5L8.91675 1.33333H11.8334V3H0.166748V1.33333H3.08342L3.91675 0.5H8.08342ZM6.00009 8.49167L7.76675 6.725L8.94175 7.9L7.17509 9.66667L8.94175 11.4333L7.76675 12.6083L6.00009 10.8417L4.23342 12.6083L3.05842 11.4333L4.82509 9.66667L3.05009 7.9L4.22509 6.725L6.00009 8.49167ZM1.00008 13.8333C1.00008 14.75 1.75008 15.5 2.66675 15.5H9.33342C10.2501 15.5 11.0001 14.75 11.0001 13.8333V3.83333H1.00008V13.8333ZM9.33342 5.5H2.66675V13.8333H9.33342V5.5Z" fill="#EB5757"/>
</svg>
